# xmcd
# 
# Track frame offsets:
#     150
#     32805
#     57775
#     99385
#     119513
#     140361
#     158584
#     171711
# 
# Disc length: 2679
# 
# Revision: 0
# Processed by: cddbd v1.5.2PL0 Copyright (c) Steve Scherf et al.
# Submitted via: BonkEnc v1.0.15
# 
DISCID=690a7508
DTITLE=Yggdrasil - Vedergällning
DYEAR=2009
DGENRE=Black Metal
TTITLE0=Oskorei
TTITLE1=Vedergällning
TTITLE2=Vitterdimmorna
TTITLE3=Ekot av skogens sång
TTITLE4=Svälttider
TTITLE5=Valkyria
TTITLE6=Storm
TTITLE7=Sorg
EXTD=
EXTT0=
EXTT1=
EXTT2=
EXTT3=
EXTT4=
EXTT5=
EXTT6=
EXTT7=
PLAYORDER=
